<mxfile host="Electron" agent="Mozilla/5.0 (Windows NT 10.0; Win64; x64) AppleWebKit/537.36 (KHTML, like Gecko) draw.io/26.1.1 Chrome/132.0.6834.210 Electron/34.3.3 Safari/537.36" version="26.1.1">
  <diagram name="PÃ¡gina-1" id="aRWSrpaWdRKdNpYUrbDa">
    <mxGraphModel dx="1434" dy="836" grid="1" gridSize="10" guides="1" tooltips="1" connect="1" arrows="1" fold="1" page="1" pageScale="1" pageWidth="827" pageHeight="1169" math="0" shadow="0">
      <root>
        <mxCell id="0" />
        <mxCell id="1" parent="0" />
        <mxCell id="BBXW4JM6IXk6C1vQf5xt-5" value="Ponto" style="swimlane;fontStyle=1;align=center;verticalAlign=top;childLayout=stackLayout;horizontal=1;startSize=26;horizontalStack=0;resizeParent=1;resizeParentMax=0;resizeLast=0;collapsible=1;marginBottom=0;whiteSpace=wrap;html=1;" parent="1" vertex="1">
          <mxGeometry x="34" y="690" width="150" height="220" as="geometry">
            <mxRectangle x="320" y="180" width="100" height="30" as="alternateBounds" />
          </mxGeometry>
        </mxCell>
        <mxCell id="BBXW4JM6IXk6C1vQf5xt-6" value="-r&lt;div&gt;-teta&lt;/div&gt;" style="text;strokeColor=none;fillColor=none;align=left;verticalAlign=top;spacingLeft=4;spacingRight=4;overflow=hidden;rotatable=0;points=[[0,0.5],[1,0.5]];portConstraint=eastwest;whiteSpace=wrap;html=1;" parent="BBXW4JM6IXk6C1vQf5xt-5" vertex="1">
          <mxGeometry y="26" width="150" height="34" as="geometry" />
        </mxCell>
        <mxCell id="BBXW4JM6IXk6C1vQf5xt-7" value="" style="line;strokeWidth=1;fillColor=none;align=left;verticalAlign=middle;spacingTop=-1;spacingLeft=3;spacingRight=3;rotatable=0;labelPosition=right;points=[];portConstraint=eastwest;strokeColor=inherit;" parent="BBXW4JM6IXk6C1vQf5xt-5" vertex="1">
          <mxGeometry y="60" width="150" height="8" as="geometry" />
        </mxCell>
        <mxCell id="BBXW4JM6IXk6C1vQf5xt-8" value="-check(r,teta): void&lt;div&gt;+getr(): double&lt;/div&gt;&lt;div&gt;&lt;div&gt;+getteta(): double&lt;/div&gt;&lt;/div&gt;&lt;div&gt;&lt;div&gt;+getx(): int&lt;/div&gt;&lt;/div&gt;&lt;div&gt;&lt;div&gt;+gety(): int&lt;/div&gt;&lt;/div&gt;&lt;div&gt;&lt;div&gt;+dist(Ponto): double&lt;/div&gt;&lt;/div&gt;&lt;div&gt;+toString(): string&lt;/div&gt;&lt;div&gt;+equals(Object): boolean&lt;/div&gt;&lt;div&gt;+hascode(): int&lt;/div&gt;" style="text;strokeColor=none;fillColor=none;align=left;verticalAlign=top;spacingLeft=4;spacingRight=4;overflow=hidden;rotatable=0;points=[[0,0.5],[1,0.5]];portConstraint=eastwest;whiteSpace=wrap;html=1;" parent="BBXW4JM6IXk6C1vQf5xt-5" vertex="1">
          <mxGeometry y="68" width="150" height="152" as="geometry" />
        </mxCell>
        <mxCell id="BBXW4JM6IXk6C1vQf5xt-10" value="&lt;div&gt;&lt;br&gt;&lt;/div&gt;" style="endArrow=open;html=1;endSize=12;startArrow=diamondThin;startSize=14;startFill=1;edgeStyle=orthogonalEdgeStyle;align=left;verticalAlign=bottom;rounded=0;" parent="1" source="BBXW4JM6IXk6C1vQf5xt-30" target="BBXW4JM6IXk6C1vQf5xt-5" edge="1">
          <mxGeometry x="-0.5057" y="37" relative="1" as="geometry">
            <mxPoint x="423" y="610" as="sourcePoint" />
            <mxPoint x="413" y="590" as="targetPoint" />
            <Array as="points">
              <mxPoint x="370" y="800" />
              <mxPoint x="370" y="800" />
            </Array>
            <mxPoint as="offset" />
          </mxGeometry>
        </mxCell>
        <mxCell id="BBXW4JM6IXk6C1vQf5xt-53" style="edgeStyle=orthogonalEdgeStyle;rounded=0;orthogonalLoop=1;jettySize=auto;html=1;" parent="1" source="BBXW4JM6IXk6C1vQf5xt-18" target="GzDtQMPosyQ-6P1J8ZZ1-2" edge="1">
          <mxGeometry relative="1" as="geometry">
            <Array as="points">
              <mxPoint x="713" y="370" />
              <mxPoint x="613" y="370" />
            </Array>
            <mxPoint x="613" y="320" as="targetPoint" />
          </mxGeometry>
        </mxCell>
        <mxCell id="BBXW4JM6IXk6C1vQf5xt-18" value="Retangulo" style="swimlane;fontStyle=1;align=center;verticalAlign=top;childLayout=stackLayout;horizontal=1;startSize=26;horizontalStack=0;resizeParent=1;resizeParentMax=0;resizeLast=0;collapsible=1;marginBottom=0;whiteSpace=wrap;html=1;" parent="1" vertex="1">
          <mxGeometry x="633" y="410" width="160" height="80" as="geometry">
            <mxRectangle x="320" y="180" width="100" height="30" as="alternateBounds" />
          </mxGeometry>
        </mxCell>
        <mxCell id="BBXW4JM6IXk6C1vQf5xt-20" value="" style="line;strokeWidth=1;fillColor=none;align=left;verticalAlign=middle;spacingTop=-1;spacingLeft=3;spacingRight=3;rotatable=0;labelPosition=right;points=[];portConstraint=eastwest;strokeColor=inherit;" parent="BBXW4JM6IXk6C1vQf5xt-18" vertex="1">
          <mxGeometry y="26" width="160" height="8" as="geometry" />
        </mxCell>
        <mxCell id="BBXW4JM6IXk6C1vQf5xt-21" value="-check(A,B,C,D): void&lt;div&gt;+toString(): string&lt;/div&gt;" style="text;strokeColor=none;fillColor=none;align=left;verticalAlign=top;spacingLeft=4;spacingRight=4;overflow=hidden;rotatable=0;points=[[0,0.5],[1,0.5]];portConstraint=eastwest;whiteSpace=wrap;html=1;" parent="BBXW4JM6IXk6C1vQf5xt-18" vertex="1">
          <mxGeometry y="34" width="160" height="46" as="geometry" />
        </mxCell>
        <mxCell id="BBXW4JM6IXk6C1vQf5xt-52" style="edgeStyle=orthogonalEdgeStyle;rounded=0;orthogonalLoop=1;jettySize=auto;html=1;" parent="1" source="BBXW4JM6IXk6C1vQf5xt-22" target="GzDtQMPosyQ-6P1J8ZZ1-2" edge="1">
          <mxGeometry relative="1" as="geometry">
            <Array as="points">
              <mxPoint x="373" y="370" />
              <mxPoint x="613" y="370" />
            </Array>
            <mxPoint x="613" y="320" as="targetPoint" />
          </mxGeometry>
        </mxCell>
        <mxCell id="BBXW4JM6IXk6C1vQf5xt-22" value="Triangulo" style="swimlane;fontStyle=1;align=center;verticalAlign=top;childLayout=stackLayout;horizontal=1;startSize=26;horizontalStack=0;resizeParent=1;resizeParentMax=0;resizeLast=0;collapsible=1;marginBottom=0;whiteSpace=wrap;html=1;" parent="1" vertex="1">
          <mxGeometry x="293" y="400" width="160" height="80" as="geometry">
            <mxRectangle x="320" y="180" width="100" height="30" as="alternateBounds" />
          </mxGeometry>
        </mxCell>
        <mxCell id="BBXW4JM6IXk6C1vQf5xt-24" value="" style="line;strokeWidth=1;fillColor=none;align=left;verticalAlign=middle;spacingTop=-1;spacingLeft=3;spacingRight=3;rotatable=0;labelPosition=right;points=[];portConstraint=eastwest;strokeColor=inherit;" parent="BBXW4JM6IXk6C1vQf5xt-22" vertex="1">
          <mxGeometry y="26" width="160" height="8" as="geometry" />
        </mxCell>
        <mxCell id="BBXW4JM6IXk6C1vQf5xt-25" value="-check(A,B,C): void&lt;div&gt;+toString(): string&lt;/div&gt;" style="text;strokeColor=none;fillColor=none;align=left;verticalAlign=top;spacingLeft=4;spacingRight=4;overflow=hidden;rotatable=0;points=[[0,0.5],[1,0.5]];portConstraint=eastwest;whiteSpace=wrap;html=1;" parent="BBXW4JM6IXk6C1vQf5xt-22" vertex="1">
          <mxGeometry y="34" width="160" height="46" as="geometry" />
        </mxCell>
        <mxCell id="BBXW4JM6IXk6C1vQf5xt-46" style="edgeStyle=orthogonalEdgeStyle;rounded=0;orthogonalLoop=1;jettySize=auto;html=1;" parent="1" source="BBXW4JM6IXk6C1vQf5xt-26" target="BBXW4JM6IXk6C1vQf5xt-34" edge="1">
          <mxGeometry relative="1" as="geometry">
            <mxPoint x="43" y="260" as="sourcePoint" />
            <Array as="points">
              <mxPoint x="104" y="180" />
              <mxPoint x="383" y="180" />
            </Array>
          </mxGeometry>
        </mxCell>
        <mxCell id="BBXW4JM6IXk6C1vQf5xt-26" value="Circulo" style="swimlane;fontStyle=1;align=center;verticalAlign=top;childLayout=stackLayout;horizontal=1;startSize=26;horizontalStack=0;resizeParent=1;resizeParentMax=0;resizeLast=0;collapsible=1;marginBottom=0;whiteSpace=wrap;html=1;" parent="1" vertex="1">
          <mxGeometry x="34" y="340" width="180" height="130" as="geometry">
            <mxRectangle x="320" y="180" width="100" height="30" as="alternateBounds" />
          </mxGeometry>
        </mxCell>
        <mxCell id="BBXW4JM6IXk6C1vQf5xt-27" value="-raio: double" style="text;strokeColor=none;fillColor=none;align=left;verticalAlign=top;spacingLeft=4;spacingRight=4;overflow=hidden;rotatable=0;points=[[0,0.5],[1,0.5]];portConstraint=eastwest;whiteSpace=wrap;html=1;" parent="BBXW4JM6IXk6C1vQf5xt-26" vertex="1">
          <mxGeometry y="26" width="180" height="26" as="geometry" />
        </mxCell>
        <mxCell id="BBXW4JM6IXk6C1vQf5xt-28" value="" style="line;strokeWidth=1;fillColor=none;align=left;verticalAlign=middle;spacingTop=-1;spacingLeft=3;spacingRight=3;rotatable=0;labelPosition=right;points=[];portConstraint=eastwest;strokeColor=inherit;" parent="BBXW4JM6IXk6C1vQf5xt-26" vertex="1">
          <mxGeometry y="52" width="180" height="8" as="geometry" />
        </mxCell>
        <mxCell id="BBXW4JM6IXk6C1vQf5xt-29" value="&lt;div&gt;-check(Centro,raio): void&lt;/div&gt;+getcentro(centro, raio): Ponto&lt;div&gt;+getraio(): double&lt;/div&gt;&lt;div&gt;+toString(): string&lt;/div&gt;" style="text;strokeColor=none;fillColor=none;align=left;verticalAlign=top;spacingLeft=4;spacingRight=4;overflow=hidden;rotatable=0;points=[[0,0.5],[1,0.5]];portConstraint=eastwest;whiteSpace=wrap;html=1;" parent="BBXW4JM6IXk6C1vQf5xt-26" vertex="1">
          <mxGeometry y="60" width="180" height="70" as="geometry" />
        </mxCell>
        <mxCell id="BBXW4JM6IXk6C1vQf5xt-30" value="Segmento" style="swimlane;fontStyle=1;align=center;verticalAlign=top;childLayout=stackLayout;horizontal=1;startSize=26;horizontalStack=0;resizeParent=1;resizeParentMax=0;resizeLast=0;collapsible=1;marginBottom=0;whiteSpace=wrap;html=1;" parent="1" vertex="1">
          <mxGeometry x="420" y="757" width="220" height="120" as="geometry">
            <mxRectangle x="320" y="180" width="100" height="30" as="alternateBounds" />
          </mxGeometry>
        </mxCell>
        <mxCell id="BBXW4JM6IXk6C1vQf5xt-32" value="" style="line;strokeWidth=1;fillColor=none;align=left;verticalAlign=middle;spacingTop=-1;spacingLeft=3;spacingRight=3;rotatable=0;labelPosition=right;points=[];portConstraint=eastwest;strokeColor=inherit;" parent="BBXW4JM6IXk6C1vQf5xt-30" vertex="1">
          <mxGeometry y="26" width="220" height="8" as="geometry" />
        </mxCell>
        <mxCell id="BBXW4JM6IXk6C1vQf5xt-33" value="&lt;div&gt;-check(A,B): void&lt;/div&gt;+geta(): Ponto&lt;div&gt;+getb(): Ponto&lt;/div&gt;&lt;div&gt;+orientacao(Ponto,PontoPonto): int&lt;/div&gt;&lt;div&gt;+interseta(Segmento): boolean&lt;/div&gt;" style="text;strokeColor=none;fillColor=none;align=left;verticalAlign=top;spacingLeft=4;spacingRight=4;overflow=hidden;rotatable=0;points=[[0,0.5],[1,0.5]];portConstraint=eastwest;whiteSpace=wrap;html=1;" parent="BBXW4JM6IXk6C1vQf5xt-30" vertex="1">
          <mxGeometry y="34" width="220" height="86" as="geometry" />
        </mxCell>
        <mxCell id="BBXW4JM6IXk6C1vQf5xt-34" value="FiguraGeometrica" style="swimlane;fontStyle=1;align=center;verticalAlign=top;childLayout=stackLayout;horizontal=1;startSize=26;horizontalStack=0;resizeParent=1;resizeParentMax=0;resizeLast=0;collapsible=1;marginBottom=0;whiteSpace=wrap;html=1;" parent="1" vertex="1">
          <mxGeometry x="293" y="90" width="160" height="60" as="geometry">
            <mxRectangle x="320" y="180" width="100" height="30" as="alternateBounds" />
          </mxGeometry>
        </mxCell>
        <mxCell id="BBXW4JM6IXk6C1vQf5xt-36" value="" style="line;strokeWidth=1;fillColor=none;align=left;verticalAlign=middle;spacingTop=-1;spacingLeft=3;spacingRight=3;rotatable=0;labelPosition=right;points=[];portConstraint=eastwest;strokeColor=inherit;" parent="BBXW4JM6IXk6C1vQf5xt-34" vertex="1">
          <mxGeometry y="26" width="160" height="8" as="geometry" />
        </mxCell>
        <mxCell id="BBXW4JM6IXk6C1vQf5xt-37" value="+toString(): string" style="text;strokeColor=none;fillColor=none;align=left;verticalAlign=top;spacingLeft=4;spacingRight=4;overflow=hidden;rotatable=0;points=[[0,0.5],[1,0.5]];portConstraint=eastwest;whiteSpace=wrap;html=1;" parent="BBXW4JM6IXk6C1vQf5xt-34" vertex="1">
          <mxGeometry y="34" width="160" height="26" as="geometry" />
        </mxCell>
        <mxCell id="BBXW4JM6IXk6C1vQf5xt-44" style="edgeStyle=orthogonalEdgeStyle;rounded=0;orthogonalLoop=1;jettySize=auto;html=1;" parent="1" source="GzDtQMPosyQ-6P1J8ZZ1-2" target="BBXW4JM6IXk6C1vQf5xt-34" edge="1">
          <mxGeometry relative="1" as="geometry">
            <Array as="points">
              <mxPoint x="610" y="180" />
              <mxPoint x="383" y="180" />
            </Array>
            <mxPoint x="613" y="240" as="sourcePoint" />
          </mxGeometry>
        </mxCell>
        <mxCell id="BBXW4JM6IXk6C1vQf5xt-48" value="" style="endArrow=open;html=1;endSize=12;startArrow=diamondThin;startSize=14;startFill=1;edgeStyle=orthogonalEdgeStyle;align=left;verticalAlign=bottom;rounded=0;" parent="1" source="BBXW4JM6IXk6C1vQf5xt-26" target="BBXW4JM6IXk6C1vQf5xt-5" edge="1">
          <mxGeometry x="-0.6517" y="-44" relative="1" as="geometry">
            <mxPoint x="104" y="490" as="sourcePoint" />
            <mxPoint x="203" y="653" as="targetPoint" />
            <Array as="points">
              <mxPoint x="104" y="620" />
              <mxPoint x="104" y="620" />
            </Array>
            <mxPoint as="offset" />
          </mxGeometry>
        </mxCell>
        <mxCell id="BBXW4JM6IXk6C1vQf5xt-49" value="&lt;div&gt;&lt;br&gt;&lt;/div&gt;&lt;div&gt;&lt;br&gt;&lt;/div&gt;" style="endArrow=open;html=1;endSize=12;startArrow=diamondThin;startSize=14;startFill=1;edgeStyle=orthogonalEdgeStyle;align=left;verticalAlign=bottom;rounded=0;" parent="1" source="BBXW4JM6IXk6C1vQf5xt-22" target="BBXW4JM6IXk6C1vQf5xt-5" edge="1">
          <mxGeometry x="-0.6667" y="36" relative="1" as="geometry">
            <mxPoint x="374" y="520" as="sourcePoint" />
            <mxPoint x="411" y="773" as="targetPoint" />
            <Array as="points">
              <mxPoint x="364" y="700" />
            </Array>
            <mxPoint as="offset" />
          </mxGeometry>
        </mxCell>
        <mxCell id="BBXW4JM6IXk6C1vQf5xt-50" value="&lt;div&gt;&lt;br&gt;&lt;/div&gt;&lt;div&gt;&lt;br&gt;&lt;/div&gt;" style="endArrow=open;html=1;endSize=12;startArrow=diamondThin;startSize=14;startFill=1;edgeStyle=orthogonalEdgeStyle;align=left;verticalAlign=bottom;rounded=0;" parent="1" source="BBXW4JM6IXk6C1vQf5xt-18" target="BBXW4JM6IXk6C1vQf5xt-5" edge="1">
          <mxGeometry x="-0.8749" y="37" relative="1" as="geometry">
            <mxPoint x="403" y="520" as="sourcePoint" />
            <mxPoint x="625" y="746" as="targetPoint" />
            <Array as="points">
              <mxPoint x="713" y="560" />
              <mxPoint x="503" y="560" />
              <mxPoint x="503" y="740" />
            </Array>
            <mxPoint as="offset" />
          </mxGeometry>
        </mxCell>
        <mxCell id="gG2iHIZLj9ErZMOK1C7G-17" value="Centro" style="text;align=center;fontStyle=1;verticalAlign=middle;spacingLeft=3;spacingRight=3;strokeColor=none;rotatable=0;points=[[0,0.5],[1,0.5]];portConstraint=eastwest;html=1;" parent="1" vertex="1">
          <mxGeometry x="93" y="470" width="80" height="26" as="geometry" />
        </mxCell>
        <mxCell id="gG2iHIZLj9ErZMOK1C7G-20" value="Ponto A, Ponto B" style="text;align=center;fontStyle=1;verticalAlign=middle;spacingLeft=3;spacingRight=3;strokeColor=none;rotatable=0;points=[[0,0.5],[1,0.5]];portConstraint=eastwest;html=1;" parent="1" vertex="1">
          <mxGeometry x="320" y="770" width="80" height="26" as="geometry" />
        </mxCell>
        <mxCell id="gG2iHIZLj9ErZMOK1C7G-21" value="Ponto A, Ponto B, Ponto C" style="text;align=center;fontStyle=1;verticalAlign=middle;spacingLeft=3;spacingRight=3;strokeColor=none;rotatable=0;points=[[0,0.5],[1,0.5]];portConstraint=eastwest;html=1;" parent="1" vertex="1">
          <mxGeometry x="240" y="540" width="80" height="26" as="geometry" />
        </mxCell>
        <mxCell id="gG2iHIZLj9ErZMOK1C7G-22" value="Ponto A, Ponto B, Ponto C, Ponto D" style="text;align=center;fontStyle=1;verticalAlign=middle;spacingLeft=3;spacingRight=3;strokeColor=none;rotatable=0;points=[[0,0.5],[1,0.5]];portConstraint=eastwest;html=1;" parent="1" vertex="1">
          <mxGeometry x="553" y="530" width="80" height="26" as="geometry" />
        </mxCell>
        <mxCell id="GzDtQMPosyQ-6P1J8ZZ1-2" value="Poligono" style="swimlane;fontStyle=1;align=center;verticalAlign=top;childLayout=stackLayout;horizontal=1;startSize=26;horizontalStack=0;resizeParent=1;resizeParentMax=0;resizeLast=0;collapsible=1;marginBottom=0;whiteSpace=wrap;html=1;" vertex="1" parent="1">
          <mxGeometry x="520" y="210" width="180" height="100" as="geometry">
            <mxRectangle x="320" y="180" width="100" height="30" as="alternateBounds" />
          </mxGeometry>
        </mxCell>
        <mxCell id="GzDtQMPosyQ-6P1J8ZZ1-3" value="+List&amp;lt;Pontos&amp;gt; Pontos" style="text;strokeColor=none;fillColor=none;align=left;verticalAlign=top;spacingLeft=4;spacingRight=4;overflow=hidden;rotatable=0;points=[[0,0.5],[1,0.5]];portConstraint=eastwest;whiteSpace=wrap;html=1;" vertex="1" parent="GzDtQMPosyQ-6P1J8ZZ1-2">
          <mxGeometry y="26" width="180" height="26" as="geometry" />
        </mxCell>
        <mxCell id="GzDtQMPosyQ-6P1J8ZZ1-4" value="" style="line;strokeWidth=1;fillColor=none;align=left;verticalAlign=middle;spacingTop=-1;spacingLeft=3;spacingRight=3;rotatable=0;labelPosition=right;points=[];portConstraint=eastwest;strokeColor=inherit;" vertex="1" parent="GzDtQMPosyQ-6P1J8ZZ1-2">
          <mxGeometry y="52" width="180" height="8" as="geometry" />
        </mxCell>
        <mxCell id="GzDtQMPosyQ-6P1J8ZZ1-5" value="&lt;div&gt;-check(Pontos): void&lt;/div&gt;&lt;span style=&quot;background-color: transparent; color: light-dark(rgb(0, 0, 0), rgb(255, 255, 255));&quot;&gt;+toString(): string&lt;/span&gt;" style="text;strokeColor=none;fillColor=none;align=left;verticalAlign=top;spacingLeft=4;spacingRight=4;overflow=hidden;rotatable=0;points=[[0,0.5],[1,0.5]];portConstraint=eastwest;whiteSpace=wrap;html=1;" vertex="1" parent="GzDtQMPosyQ-6P1J8ZZ1-2">
          <mxGeometry y="60" width="180" height="40" as="geometry" />
        </mxCell>
      </root>
    </mxGraphModel>
  </diagram>
</mxfile>
